<?xml version="1.0" encoding="utf-8"?>
<!-- Generator: Adobe Illustrator 19.0.0, SVG Export Plug-In . SVG Version: 6.00 Build 0)  -->
<svg version="1.1" id="Layer_1" xmlns="http://www.w3.org/2000/svg" xmlns:xlink="http://www.w3.org/1999/xlink" x="0px" y="0px"
	 viewBox="0 0 1065.5 500" style="enable-background:new 0 0 1065.5 500;" xml:space="preserve">
<style type="text/css">
	.st0{fill:#111111;}
	.st1{fill:url(#XMLID_107_);}
	.st2{fill:url(#XMLID_108_);}
	.st3{fill:url(#XMLID_109_);}
	.st4{fill:url(#XMLID_110_);}
	.st5{fill:#CA3028;}
	.st6{fill:url(#XMLID_111_);}
	.st7{fill:url(#XMLID_112_);}
	.st8{fill:#E05841;}
	.st9{fill:url(#XMLID_113_);}
	.st10{opacity:0.1;fill:#090909;}
	.st11{opacity:0.4;fill:url(#XMLID_114_);}
	.st12{opacity:0.4;fill:url(#XMLID_115_);}
	.st13{opacity:0.2;fill:url(#XMLID_116_);}
	.st14{opacity:0.2;fill:url(#XMLID_117_);}
	.st15{opacity:0.4;fill:url(#XMLID_118_);}
	.st16{opacity:0.4;fill:url(#XMLID_119_);}
	.st17{opacity:0.4;fill:url(#XMLID_120_);}
	.st18{opacity:0.4;fill:url(#XMLID_121_);}
	.st19{fill:url(#XMLID_122_);}
	.st20{fill:url(#XMLID_123_);}
	.st21{fill:url(#XMLID_124_);}
	.st22{fill:url(#XMLID_125_);}
	.st23{fill:url(#XMLID_126_);}
	.st24{fill:url(#XMLID_127_);}
	.st25{fill:url(#XMLID_128_);}
	.st26{fill:url(#XMLID_129_);}
	.st27{opacity:0.4;fill:url(#XMLID_130_);}
	.st28{opacity:0.4;fill:url(#XMLID_131_);}
	.st29{opacity:0.2;fill:url(#XMLID_132_);}
	.st30{opacity:0.2;fill:url(#XMLID_133_);}
	.st31{opacity:0.4;fill:url(#XMLID_134_);}
	.st32{opacity:0.4;fill:url(#XMLID_135_);}
	.st33{opacity:0.4;fill:url(#XMLID_136_);}
	.st34{opacity:0.4;fill:url(#XMLID_137_);}
	.st35{fill:url(#XMLID_138_);}
	.st36{fill:#FFFFFF;}
</style>
<rect id="XMLID_1_" x="565.5" class="st0" width="500" height="500"/>
<g id="XMLID_448_">
	<g id="XMLID_3_">
		<g id="XMLID_68_">
			
				<linearGradient id="XMLID_107_" gradientUnits="userSpaceOnUse" x1="206.8337" y1="206.6367" x2="310.4065" y2="206.6367" gradientTransform="matrix(0.9386 0.345 -0.345 0.9386 88.6684 -73.1937)">
				<stop  offset="0" style="stop-color:#EB8223"/>
				<stop  offset="1" style="stop-color:#FBC213"/>
			</linearGradient>
			<path id="XMLID_82_" class="st1" d="M204.5,214.5c4.8-16.1,19.7-27.9,37.4-27.9c10.6,0,20.1,4.2,27.1,11c5.5,4.8,29.4,28,21.3,69
				c9.4-11.1,15.1-25.4,15.1-41.1c0-34.9-28.1-63.2-62.9-63.5C213.4,174.2,205.9,207.1,204.5,214.5z"/>
			
				<linearGradient id="XMLID_108_" gradientUnits="userSpaceOnUse" x1="183.3357" y1="257.416" x2="246.2236" y2="257.416" gradientTransform="matrix(0.9386 0.345 -0.345 0.9386 88.6684 -73.1937)">
				<stop  offset="0" style="stop-color:#AEC636"/>
				<stop  offset="1" style="stop-color:#469644"/>
			</linearGradient>
			<path id="XMLID_81_" class="st2" d="M202.9,275.6l0-49.4l0-0.7v-0.2l0,0c0-3.8,0.6-7.4,1.6-10.9c1.3-7.3,8.9-40.3,38-52.5
				c-0.2,0-0.4,0-0.6,0c-35.1,0-63.5,28.4-63.5,63.5c0,0.2,0,0.5,0,0.7h0l0,103.4l24.5,0L202.9,275.6z"/>
			<g id="XMLID_79_">
				
					<radialGradient id="XMLID_109_" cx="246.9846" cy="227.1583" r="28.1583" gradientTransform="matrix(0.9386 0.345 -0.345 0.9386 88.6684 -73.1937)" gradientUnits="userSpaceOnUse">
					<stop  offset="0" style="stop-color:#0C0C0C"/>
					<stop  offset="0.3377" style="stop-color:#303130"/>
					<stop  offset="0.5214" style="stop-color:#3F403F"/>
					<stop  offset="0.7669" style="stop-color:#3D3E3D"/>
					<stop  offset="0.8553" style="stop-color:#373737"/>
					<stop  offset="0.9183" style="stop-color:#2B2C2B"/>
					<stop  offset="0.9689" style="stop-color:#1B1B1B"/>
					<stop  offset="1" style="stop-color:#0C0C0C"/>
				</radialGradient>
				<path id="XMLID_80_" class="st3" d="M229.7,250.5c3.7,1.8,7.9,2.9,12.4,2.9c15.5,0,28.2-12.6,28.2-28.2
					c0-15.5-12.6-28.2-28.2-28.2c-15.5,0-28.2,12.6-28.2,28.2c0,6.9,2.5,13.3,6.7,18.2l14.3-8.5L229.7,250.5z"/>
			</g>
			
				<linearGradient id="XMLID_110_" gradientUnits="userSpaceOnUse" x1="218.8615" y1="326.708" x2="360.1401" y2="326.708" gradientTransform="matrix(0.9386 0.345 -0.345 0.9386 88.6684 -73.1937)">
				<stop  offset="0" style="stop-color:#1EA4DD"/>
				<stop  offset="1" style="stop-color:#0E5EA1"/>
			</linearGradient>
			<path id="XMLID_78_" class="st4" d="M321.3,335.5l0-11.7l-88.2,0l-37.1,0c-15.6-0.8-17.6-6.7-17.6-6.7l0,6.7l0,6.1l0,5.6
				c0,7.1,5.8,12.8,12.8,12.8l117.2,0C315.6,348.3,321.3,342.6,321.3,335.5z"/>
			<path id="XMLID_77_" class="st5" d="M291.9,348.3c0,0,7.7-2.6,6.7-24.9l6.1-0.1l0,25l-13.3,0"/>
			
				<linearGradient id="XMLID_111_" gradientUnits="userSpaceOnUse" x1="298.9105" y1="321.6626" x2="324.7314" y2="111.3686" gradientTransform="matrix(0.9386 0.345 -0.345 0.9386 88.6684 -73.1937)">
				<stop  offset="0" style="stop-color:#2A2C6B"/>
				<stop  offset="0.4607" style="stop-color:#4E4795"/>
				<stop  offset="1" style="stop-color:#323276"/>
			</linearGradient>
			<path id="XMLID_76_" class="st6" d="M321.6,335.5l0-209.3l-24.5,0l0,51.4c9.7,11.8,15.9,29.1,15.9,48.4
				c0,19.3-6.2,36.6-15.9,48.4l0,19.2l0,37.1c-0.8,15.6-6.7,17.6-6.7,17.6l6.7,0l6.1,0l5.6,0C315.9,348.3,321.6,342.6,321.6,335.5z"
				/>
			
				<linearGradient id="XMLID_112_" gradientUnits="userSpaceOnUse" x1="155.0729" y1="167.8626" x2="288.7049" y2="108.3658" gradientTransform="matrix(0.9386 0.345 -0.345 0.9386 88.6684 -73.1937)">
				<stop  offset="0" style="stop-color:#A22071"/>
				<stop  offset="0.4286" style="stop-color:#C92265"/>
				<stop  offset="1" style="stop-color:#B4216B"/>
			</linearGradient>
			<path id="XMLID_75_" class="st7" d="M225.6,130.2l7.6,0l76,0c10.6,1.7,12.1,6.1,12.1,6.1l0-6.1l0.3,0l0-11.7
				c0-7.1-5.8-12.8-12.9-12.8l-117.5,0c-7.1,0-12.9,5.8-12.9,12.8l0,7.7l0,4l0,38.7C185.1,133.7,217.1,130.5,225.6,130.2z"/>
			<path id="XMLID_74_" class="st8" d="M202.9,225.3v0.2C202.9,225.4,202.9,225.4,202.9,225.3L202.9,225.3z"/>
			
				<linearGradient id="XMLID_113_" gradientUnits="userSpaceOnUse" x1="280.9627" y1="312.3306" x2="264.0089" y2="191.6977" gradientTransform="matrix(0.9386 0.345 -0.345 0.9386 88.6684 -73.1937)">
				<stop  offset="0" style="stop-color:#CC2628"/>
				<stop  offset="1" style="stop-color:#D13C27"/>
			</linearGradient>
			<path id="XMLID_83_" class="st9" d="M276.5,305.7l-11.8-20.9l0,0c10-3.9,18.8-10.2,25.7-18.2c8-41-15.8-64.3-21.3-69
				c7.3,7.1,11.8,17,11.8,28c0,17.9-12.1,33-28.5,37.5l0,0c-3.3,0.9-6.8,1.4-10.3,1.4c-7.2,0-13.9-2-19.7-5.4l-0.1,0.1l16.6,29.8
				l16.2,28.8c1.1,2,3.6,2.7,5.6,1.6l14.3-8C276.9,310.2,277.6,307.7,276.5,305.7z"/>
			<path id="XMLID_71_" class="st10" d="M204.5,214.4c1.3-7.3,8.9-40.3,38-52.5c-0.2,0-0.4,0-0.6,0c0,0,7.6,0.3,11.9,1.2
				C253.8,163.1,216.9,167.5,204.5,214.4z"/>
			<path id="XMLID_70_" class="st10" d="M269.1,197.5c5.5,4.8,29.4,28,21.3,69c0,0-3.5,4-5.7,6C284.6,272.5,300.2,230,269.1,197.5z"
				/>
		</g>
		
			<linearGradient id="XMLID_114_" gradientUnits="userSpaceOnUse" x1="172.085" y1="96.2204" x2="192.6024" y2="114.0558" gradientTransform="matrix(0.9486 0.3166 -0.3166 0.9486 56.3095 -36.8028)">
			<stop  offset="0" style="stop-color:#FFFFFF;stop-opacity:0.8"/>
			<stop  offset="0.4679" style="stop-color:#FFFFFF;stop-opacity:0"/>
		</linearGradient>
		<path id="XMLID_67_" class="st11" d="M180.2,129.7L180,122c-0.2-7.1,5.4-13,12.5-13.2l17.3-0.7l1,19.6L180.2,129.7z"/>
		
			<linearGradient id="XMLID_115_" gradientUnits="userSpaceOnUse" x1="2314.8354" y1="-677.2173" x2="2335.3528" y2="-659.3818" gradientTransform="matrix(-0.9332 0.3595 0.3595 0.9332 2713.7944 -92.3345)">
			<stop  offset="0" style="stop-color:#FFFFFF;stop-opacity:0.8"/>
			<stop  offset="0.4679" style="stop-color:#FFFFFF;stop-opacity:0"/>
		</linearGradient>
		<path id="XMLID_73_" class="st12" d="M320.1,128.2l-0.1-7.7c-0.1-7.1-6-12.8-13.1-12.6l-17.3,0.1l-0.1,19.6L320.1,128.2z"/>
		
			<linearGradient id="XMLID_116_" gradientUnits="userSpaceOnUse" x1="2962.3525" y1="1492.873" x2="2982.8699" y2="1510.7085" gradientTransform="matrix(-0.3533 -0.9355 -0.9355 0.3533 2763.1882 2581.165)">
			<stop  offset="0" style="stop-color:#FFFFFF;stop-opacity:0.8"/>
			<stop  offset="0.4679" style="stop-color:#FFFFFF;stop-opacity:0"/>
		</linearGradient>
		<path id="XMLID_84_" class="st13" d="M299.7,346.8l7.7-0.1c7.1-0.1,12.8-5.9,12.7-13l0-17.3l-19.6-0.2L299.7,346.8z"/>
		
			<linearGradient id="XMLID_117_" gradientUnits="userSpaceOnUse" x1="1081.2732" y1="2171.3606" x2="1099.9017" y2="2187.5542" gradientTransform="matrix(0.9289 -0.3703 -0.3703 -0.9289 -10.8418 2764.6243)">
			<stop  offset="0" style="stop-color:#FFFFFF;stop-opacity:0.8"/>
			<stop  offset="0.4679" style="stop-color:#FFFFFF;stop-opacity:0"/>
		</linearGradient>
		<path id="XMLID_85_" class="st14" d="M186.9,327c-4.2,0-7.6,3.4-7.4,7.6l0,0c0.2,7.1,6.1,12.7,13.2,12.5l10-0.2
			c4.1-0.1,7.3-3.4,7.3-7.5l0-5c0-4-3.3-7.3-7.4-7.3L186.9,327z"/>
		
			<linearGradient id="XMLID_118_" gradientUnits="userSpaceOnUse" x1="164.7128" y1="280.5991" x2="183.7094" y2="284.35" gradientTransform="matrix(0.9204 0.3909 -0.3909 0.9204 148.4858 -130.6878)">
			<stop  offset="0" style="stop-color:#FFFFFF;stop-opacity:0.8"/>
			<stop  offset="0.475" style="stop-color:#FFFFFF;stop-opacity:0"/>
		</linearGradient>
		<path id="XMLID_86_" class="st15" d="M180.6,221.9c0,0,1.2-35.9,33.5-50.5l2.7,6.5l-24.9,46.4L180.6,221.9z"/>
		
			<linearGradient id="XMLID_119_" gradientUnits="userSpaceOnUse" x1="1971.4932" y1="1967.6863" x2="1990.4896" y2="1971.4371" gradientTransform="matrix(-0.8325 0.5541 -0.5541 -0.8325 3029.687 747.3072)">
			<stop  offset="0" style="stop-color:#FFFFFF;stop-opacity:0.8"/>
			<stop  offset="0.475" style="stop-color:#FFFFFF;stop-opacity:0"/>
		</linearGradient>
		<path id="XMLID_87_" class="st16" d="M278.6,176.9c0,0,29.3,20.8,23.8,55.8l-6.9-1.4L270.4,185L278.6,176.9z"/>
		
			<linearGradient id="XMLID_120_" gradientUnits="userSpaceOnUse" x1="245.9208" y1="270.7552" x2="298.1775" y2="276.2476" gradientTransform="matrix(0.9386 0.345 -0.345 0.9386 88.6684 -73.1937)">
			<stop  offset="0" style="stop-color:#FFFFFF;stop-opacity:0.8"/>
			<stop  offset="0.525" style="stop-color:#FFFFFF;stop-opacity:0"/>
		</linearGradient>
		<path id="XMLID_69_" class="st17" d="M227.2,263.6l27.3,48.9l8.8-3.3c0,0-14.7-30.3-14.4-29.2c20.7-6.1,23-24.5,23-24.5
			s-14.8,17.5-44.6,7.7"/>
	</g>
	<g id="XMLID_28_">
		
			<linearGradient id="XMLID_121_" gradientUnits="userSpaceOnUse" x1="247.0571" y1="203.1093" x2="243.8905" y2="225.6407" gradientTransform="matrix(0.9955 9.454248e-002 -9.454248e-002 0.9955 23.5022 -22.3541)">
			<stop  offset="0" style="stop-color:#FFFFFF"/>
			<stop  offset="1" style="stop-color:#FFFFFF;stop-opacity:0"/>
		</linearGradient>
		<circle id="XMLID_53_" class="st18" cx="247.6" cy="214.3" r="11.4"/>
		
			<linearGradient id="XMLID_122_" gradientUnits="userSpaceOnUse" x1="243.2449" y1="218.4843" x2="242.2653" y2="225.4549" gradientTransform="matrix(0.9955 9.454248e-002 -9.454248e-002 0.9955 23.5022 -22.3541)">
			<stop  offset="0" style="stop-color:#FFFFFF"/>
			<stop  offset="1" style="stop-color:#FFFFFF;stop-opacity:0"/>
		</linearGradient>
		<circle id="XMLID_65_" class="st19" cx="244.2" cy="221.6" r="3.5"/>
	</g>
	<g id="XMLID_381_">
		<path id="XMLID_393_" class="st0" d="M180.4,395.4c0,4.3-1.6,7.1-4.7,8.4l4.4,16.8c0.2,0.8-0.2,1.2-0.9,1.2h-6.7
			c-0.6,0-1-0.3-1.1-0.9l-4.3-16.3h-4.4v16.1c0,0.6-0.4,1-1,1h-6.7c-0.6,0-1-0.4-1-1v-49.1c0-0.6,0.4-1,1-1h16.1
			c6,0,9.2,3.2,9.2,9.2V395.4z M169.2,396.2c1.7,0,2.6-0.9,2.6-2.6v-12c0-1.7-0.9-2.6-2.6-2.6h-6.3v17.2H169.2z"/>
		<path id="XMLID_391_" class="st0" d="M221.3,378c0,0.6-0.3,1.1-1,1.1h-16v12.8h12.2c0.6,0,1,0.4,1,1.1v6.3c0,0.7-0.4,1.1-1,1.1
			h-12.2v12.9h16c0.8,0,1,0.3,1,1v6.4c0,0.6-0.3,1-1,1h-23.5c-0.6,0-1-0.4-1-1v-49.1c0-0.6,0.4-1,1-1h23.5c0.8,0,1,0.4,1,1V378z"/>
		<path id="XMLID_388_" class="st0" d="M236.7,371.6c0-0.6,0.4-1,1-1h15.4c6,0,9.2,3.2,9.2,9.2v15.6c0,6-3.2,9.2-9.2,9.2h-7.7v16.1
			c0,0.6-0.3,1-1,1h-6.7c-0.6,0-1-0.4-1-1V371.6z M251,396.2c1.7,0,2.6-1,2.6-2.6v-12c0-1.7-0.8-2.6-2.6-2.6h-5.6v17.2H251z"/>
		<path id="XMLID_385_" class="st0" d="M298.5,421.8c-0.6,0-0.9-0.3-1-0.9l-1.8-9.3h-11.4l-1.7,9.3c-0.1,0.6-0.4,0.9-1,0.9h-6.8
			c-0.7,0-1-0.4-0.8-1.1l10.6-49.2c0.1-0.6,0.5-0.9,1.1-0.9h8.9c0.6,0,1,0.3,1.1,0.9l10.6,49.2c0.1,0.7-0.1,1.1-0.9,1.1H298.5z
			 M290,381.8l-4.1,22.3h8.2L290,381.8z"/>
		<path id="XMLID_382_" class="st0" d="M329.6,413.3h15.2c0.7,0,1,0.4,1,1v6.4c0,0.7-0.3,1-1,1h-22.9c-0.6,0-1-0.3-1-1v-49.1
			c0-0.6,0.4-1,1-1h6.7c0.7,0,1,0.4,1,1V413.3z"/>
	</g>
</g>
<g id="XMLID_4_">
	<g id="XMLID_64_">
		<g id="XMLID_93_">
			
				<linearGradient id="XMLID_123_" gradientUnits="userSpaceOnUse" x1="737.5957" y1="11.5727" x2="841.1685" y2="11.5727" gradientTransform="matrix(0.9386 0.345 -0.345 0.9386 88.6684 -73.1937)">
				<stop  offset="0" style="stop-color:#EB8223"/>
				<stop  offset="1" style="stop-color:#FBC213"/>
			</linearGradient>
			<path id="XMLID_105_" class="st20" d="M770,214.5c4.8-16.1,19.7-27.9,37.4-27.9c10.6,0,20.1,4.2,27.1,11c5.5,4.8,29.4,28,21.3,69
				c9.4-11.1,15.1-25.4,15.1-41.1c0-34.9-28.1-63.2-62.9-63.5C778.9,174.2,771.3,207.1,770,214.5z"/>
			
				<linearGradient id="XMLID_124_" gradientUnits="userSpaceOnUse" x1="714.0977" y1="62.352" x2="776.9857" y2="62.352" gradientTransform="matrix(0.9386 0.345 -0.345 0.9386 88.6684 -73.1937)">
				<stop  offset="0" style="stop-color:#AEC636"/>
				<stop  offset="1" style="stop-color:#469644"/>
			</linearGradient>
			<path id="XMLID_104_" class="st21" d="M768.4,275.6l0-49.4v-0.7l0-0.2l0,0c0-3.8,0.6-7.4,1.6-10.9c1.3-7.3,8.9-40.3,38-52.5
				c-0.2,0-0.4,0-0.6,0c-35.1,0-63.5,28.4-63.5,63.5c0,0.2,0,0.5,0,0.7h0l0,103.4l24.5,0L768.4,275.6z"/>
			<g id="XMLID_102_">
				
					<radialGradient id="XMLID_125_" cx="777.7466" cy="32.0942" r="28.1583" gradientTransform="matrix(0.9386 0.345 -0.345 0.9386 88.6684 -73.1937)" gradientUnits="userSpaceOnUse">
					<stop  offset="0" style="stop-color:#0C0C0C"/>
					<stop  offset="0.3377" style="stop-color:#303130"/>
					<stop  offset="0.5214" style="stop-color:#3F403F"/>
					<stop  offset="0.7669" style="stop-color:#3D3E3D"/>
					<stop  offset="0.8553" style="stop-color:#373737"/>
					<stop  offset="0.9183" style="stop-color:#2B2C2B"/>
					<stop  offset="0.9689" style="stop-color:#1B1B1B"/>
					<stop  offset="1" style="stop-color:#0C0C0C"/>
				</radialGradient>
				<path id="XMLID_103_" class="st22" d="M795.2,250.5c3.7,1.8,7.9,2.9,12.4,2.9c15.5,0,28.2-12.6,28.2-28.2
					c0-15.5-12.6-28.2-28.2-28.2c-15.5,0-28.2,12.6-28.2,28.2c0,6.9,2.5,13.3,6.7,18.2l14.3-8.5L795.2,250.5z"/>
			</g>
			
				<linearGradient id="XMLID_126_" gradientUnits="userSpaceOnUse" x1="749.6235" y1="131.644" x2="890.9021" y2="131.644" gradientTransform="matrix(0.9386 0.345 -0.345 0.9386 88.6684 -73.1937)">
				<stop  offset="0" style="stop-color:#1EA4DD"/>
				<stop  offset="1" style="stop-color:#0E5EA1"/>
			</linearGradient>
			<path id="XMLID_101_" class="st23" d="M886.8,335.5l0-11.7l-88.2,0l-37.1,0c-15.6-0.8-17.6-6.7-17.6-6.7l0,6.7l0,6.1l0,5.6
				c0,7.1,5.8,12.8,12.8,12.8l117.2,0C881,348.3,886.8,342.6,886.8,335.5z"/>
			<path id="XMLID_100_" class="st5" d="M857.3,348.3c0,0,7.7-2.6,6.7-24.9l6.1-0.1l0,25l-13.3,0"/>
			
				<linearGradient id="XMLID_127_" gradientUnits="userSpaceOnUse" x1="829.6725" y1="126.5985" x2="855.4933" y2="-83.6955" gradientTransform="matrix(0.9386 0.345 -0.345 0.9386 88.6684 -73.1937)">
				<stop  offset="0" style="stop-color:#2A2C6B"/>
				<stop  offset="0.4607" style="stop-color:#4E4795"/>
				<stop  offset="1" style="stop-color:#323276"/>
			</linearGradient>
			<path id="XMLID_99_" class="st24" d="M887.1,335.5l0-209.3l-24.5,0l0,51.4c9.7,11.8,15.9,29.1,15.9,48.4
				c0,19.3-6.2,36.6-15.9,48.4l0,19.2l0,37.1c-0.8,15.6-6.7,17.6-6.7,17.6l6.7,0l6.1,0l5.6,0C881.3,348.3,887.1,342.6,887.1,335.5z"
				/>
			
				<linearGradient id="XMLID_128_" gradientUnits="userSpaceOnUse" x1="685.8349" y1="-27.2015" x2="819.4669" y2="-86.6983" gradientTransform="matrix(0.9386 0.345 -0.345 0.9386 88.6684 -73.1937)">
				<stop  offset="0" style="stop-color:#A22071"/>
				<stop  offset="0.4286" style="stop-color:#C92265"/>
				<stop  offset="1" style="stop-color:#B4216B"/>
			</linearGradient>
			<path id="XMLID_98_" class="st25" d="M791.1,130.2l7.6,0l76,0c10.6,1.7,12.1,6.1,12.1,6.1l0-6.1l0.3,0l0-11.7
				c0-7.1-5.8-12.8-12.9-12.8l-117.5,0c-7.1,0-12.9,5.8-12.9,12.8l0,7.7l0,4l0,38.7C750.6,133.7,782.6,130.5,791.1,130.2z"/>
			<path id="XMLID_97_" class="st8" d="M768.4,225.3l0,0.2C768.4,225.4,768.4,225.4,768.4,225.3L768.4,225.3z"/>
			
				<linearGradient id="XMLID_129_" gradientUnits="userSpaceOnUse" x1="811.7247" y1="117.2665" x2="794.7709" y2="-3.3663" gradientTransform="matrix(0.9386 0.345 -0.345 0.9386 88.6684 -73.1937)">
				<stop  offset="0" style="stop-color:#CC2628"/>
				<stop  offset="1" style="stop-color:#D13C27"/>
			</linearGradient>
			<path id="XMLID_96_" class="st26" d="M842,305.7l-11.8-20.9l0,0c10-3.9,18.8-10.2,25.7-18.2c8-41-15.8-64.3-21.3-69
				c7.3,7.1,11.8,17,11.8,28c0,17.9-12.1,33-28.5,37.5l0,0c-3.3,0.9-6.8,1.4-10.3,1.4c-7.2,0-13.9-2-19.7-5.4l-0.1,0.1l16.6,29.8
				l16.2,28.8c1.1,2,3.6,2.7,5.6,1.6l14.3-8C842.4,310.2,843.1,307.7,842,305.7z"/>
			<path id="XMLID_95_" class="st10" d="M769.9,214.4c1.3-7.3,8.9-40.3,38-52.5c-0.2,0-0.4,0-0.6,0c0,0,7.6,0.3,11.9,1.2
				C819.2,163.1,782.3,167.5,769.9,214.4z"/>
			<path id="XMLID_94_" class="st10" d="M834.6,197.5c5.5,4.8,29.4,28,21.3,69c0,0-3.5,4-5.7,6C850.1,272.5,865.6,230,834.6,197.5z"
				/>
		</g>
		
			<linearGradient id="XMLID_130_" gradientUnits="userSpaceOnUse" x1="708.4753" y1="-82.7874" x2="728.9927" y2="-64.9519" gradientTransform="matrix(0.9486 0.3166 -0.3166 0.9486 56.3095 -36.8028)">
			<stop  offset="0" style="stop-color:#FFFFFF;stop-opacity:0.8"/>
			<stop  offset="0.4679" style="stop-color:#FFFFFF;stop-opacity:0"/>
		</linearGradient>
		<path id="XMLID_92_" class="st27" d="M745.7,129.7l-0.2-7.6c-0.2-7.1,5.4-13,12.5-13.2l17.3-0.7l1,19.6L745.7,129.7z"/>
		
			<linearGradient id="XMLID_131_" gradientUnits="userSpaceOnUse" x1="1787.163" y1="-473.9439" x2="1807.6803" y2="-456.1085" gradientTransform="matrix(-0.9332 0.3595 0.3595 0.9332 2713.7944 -92.3345)">
			<stop  offset="0" style="stop-color:#FFFFFF;stop-opacity:0.8"/>
			<stop  offset="0.4679" style="stop-color:#FFFFFF;stop-opacity:0"/>
		</linearGradient>
		<path id="XMLID_91_" class="st28" d="M885.5,128.2l-0.1-7.7c-0.1-7.1-6-12.8-13.1-12.6l-17.3,0.1l-0.1,19.6L885.5,128.2z"/>
		
			<linearGradient id="XMLID_132_" gradientUnits="userSpaceOnUse" x1="2762.5974" y1="963.8588" x2="2783.1147" y2="981.6942" gradientTransform="matrix(-0.3533 -0.9355 -0.9355 0.3533 2763.1882 2581.165)">
			<stop  offset="0" style="stop-color:#FFFFFF;stop-opacity:0.8"/>
			<stop  offset="0.4679" style="stop-color:#FFFFFF;stop-opacity:0"/>
		</linearGradient>
		<path id="XMLID_90_" class="st29" d="M865.2,346.8l7.7-0.1c7.1-0.1,12.8-5.9,12.7-13l0-17.3l-19.6-0.2L865.2,346.8z"/>
		
			<linearGradient id="XMLID_133_" gradientUnits="userSpaceOnUse" x1="1606.5376" y1="1961.9432" x2="1625.166" y2="1978.1367" gradientTransform="matrix(0.9289 -0.3703 -0.3703 -0.9289 -10.8418 2764.6243)">
			<stop  offset="0" style="stop-color:#FFFFFF;stop-opacity:0.8"/>
			<stop  offset="0.4679" style="stop-color:#FFFFFF;stop-opacity:0"/>
		</linearGradient>
		<path id="XMLID_89_" class="st30" d="M752.4,327c-4.2,0-7.6,3.4-7.4,7.6l0,0c0.2,7.1,6.1,12.7,13.2,12.5l10-0.2
			c4.1-0.1,7.3-3.4,7.3-7.5l0-5c0-4-3.3-7.3-7.4-7.3L752.4,327z"/>
		
			<linearGradient id="XMLID_134_" gradientUnits="userSpaceOnUse" x1="685.1951" y1="59.564" x2="704.1917" y2="63.3149" gradientTransform="matrix(0.9204 0.3909 -0.3909 0.9204 148.4858 -130.6878)">
			<stop  offset="0" style="stop-color:#FFFFFF;stop-opacity:0.8"/>
			<stop  offset="0.475" style="stop-color:#FFFFFF;stop-opacity:0"/>
		</linearGradient>
		<path id="XMLID_88_" class="st31" d="M746.1,221.9c0,0,1.2-35.9,33.5-50.5l2.7,6.5l-24.9,46.4L746.1,221.9z"/>
		
			<linearGradient id="XMLID_135_" gradientUnits="userSpaceOnUse" x1="1500.7533" y1="1654.3776" x2="1519.7499" y2="1658.1284" gradientTransform="matrix(-0.8325 0.5541 -0.5541 -0.8325 3029.687 747.3072)">
			<stop  offset="0" style="stop-color:#FFFFFF;stop-opacity:0.8"/>
			<stop  offset="0.475" style="stop-color:#FFFFFF;stop-opacity:0"/>
		</linearGradient>
		<path id="XMLID_72_" class="st32" d="M844.1,176.9c0,0,29.3,20.8,23.8,55.8l-6.9-1.4L835.9,185L844.1,176.9z"/>
		
			<linearGradient id="XMLID_136_" gradientUnits="userSpaceOnUse" x1="776.6828" y1="75.6911" x2="828.9395" y2="81.1835" gradientTransform="matrix(0.9386 0.345 -0.345 0.9386 88.6684 -73.1937)">
			<stop  offset="0" style="stop-color:#FFFFFF;stop-opacity:0.8"/>
			<stop  offset="0.525" style="stop-color:#FFFFFF;stop-opacity:0"/>
		</linearGradient>
		<path id="XMLID_66_" class="st33" d="M792.7,263.6l27.3,48.9l8.8-3.3c0,0-14.7-30.3-14.4-29.2c20.7-6.1,23-24.5,23-24.5
			s-14.8,17.5-44.6,7.7"/>
	</g>
	<g id="XMLID_61_">
		
			<linearGradient id="XMLID_137_" gradientUnits="userSpaceOnUse" x1="809.996" y1="149.6482" x2="806.8294" y2="172.1796" gradientTransform="matrix(0.9955 9.454248e-002 -9.454248e-002 0.9955 23.5022 -22.3541)">
			<stop  offset="0" style="stop-color:#FFFFFF"/>
			<stop  offset="1" style="stop-color:#FFFFFF;stop-opacity:0"/>
		</linearGradient>
		<circle id="XMLID_63_" class="st34" cx="813.1" cy="214.3" r="11.4"/>
		
			<linearGradient id="XMLID_138_" gradientUnits="userSpaceOnUse" x1="806.1838" y1="165.0232" x2="805.2042" y2="171.9938" gradientTransform="matrix(0.9955 9.454248e-002 -9.454248e-002 0.9955 23.5022 -22.3541)">
			<stop  offset="0" style="stop-color:#FFFFFF"/>
			<stop  offset="1" style="stop-color:#FFFFFF;stop-opacity:0"/>
		</linearGradient>
		<circle id="XMLID_62_" class="st35" cx="809.7" cy="221.6" r="3.5"/>
	</g>
	<g id="XMLID_5_">
		<path id="XMLID_58_" class="st36" d="M745.9,395.4c0,4.3-1.6,7.1-4.7,8.4l4.4,16.8c0.2,0.8-0.2,1.2-0.9,1.2h-6.7
			c-0.6,0-1-0.3-1.1-0.9l-4.3-16.3h-4.4v16.1c0,0.6-0.4,1-1,1h-6.7c-0.6,0-1-0.4-1-1v-49.1c0-0.6,0.4-1,1-1h16.1
			c6,0,9.2,3.2,9.2,9.2V395.4z M734.6,396.2c1.7,0,2.6-0.9,2.6-2.6v-12c0-1.7-0.9-2.6-2.6-2.6h-6.3v17.2H734.6z"/>
		<path id="XMLID_56_" class="st36" d="M786.8,378c0,0.6-0.3,1.1-1,1.1h-16v12.8H782c0.6,0,1,0.4,1,1.1v6.3c0,0.7-0.4,1.1-1,1.1
			h-12.2v12.9h16c0.8,0,1,0.3,1,1v6.4c0,0.6-0.3,1-1,1h-23.5c-0.6,0-1-0.4-1-1v-49.1c0-0.6,0.4-1,1-1h23.5c0.8,0,1,0.4,1,1V378z"/>
		<path id="XMLID_52_" class="st36" d="M802.2,371.6c0-0.6,0.4-1,1-1h15.4c6,0,9.2,3.2,9.2,9.2v15.6c0,6-3.2,9.2-9.2,9.2h-7.7v16.1
			c0,0.6-0.3,1-1,1h-6.7c-0.6,0-1-0.4-1-1V371.6z M816.5,396.2c1.7,0,2.6-1,2.6-2.6v-12c0-1.7-0.8-2.6-2.6-2.6h-5.6v17.2H816.5z"/>
		<path id="XMLID_49_" class="st36" d="M864,421.8c-0.6,0-0.9-0.3-1-0.9l-1.8-9.3h-11.4l-1.7,9.3c-0.1,0.6-0.4,0.9-1,0.9h-6.8
			c-0.7,0-1-0.4-0.8-1.1l10.6-49.2c0.1-0.6,0.5-0.9,1.1-0.9h8.9c0.6,0,1,0.3,1.1,0.9l10.6,49.2c0.1,0.7-0.1,1.1-0.9,1.1H864z
			 M855.5,381.8l-4.1,22.3h8.2L855.5,381.8z"/>
		<path id="XMLID_47_" class="st36" d="M895.1,413.3h15.2c0.7,0,1,0.4,1,1v6.4c0,0.7-0.3,1-1,1h-22.9c-0.6,0-1-0.3-1-1v-49.1
			c0-0.6,0.4-1,1-1h6.7c0.7,0,1,0.4,1,1V413.3z"/>
	</g>
</g>
</svg>
